<svg width="12" height="8" viewBox="0 0 12 8" fill="none" xmlns="http://www.w3.org/2000/svg">
<path d="M11.0379 3.69268V7.59994C11.0379 7.69591 10.9557 7.77817 10.8597 7.77817H8.84439C8.74842 7.77817 8.66616 7.69591 8.66616 7.59994V3.96688C8.66616 3.0072 8.32342 2.34914 7.45971 2.34914C6.80165 2.34914 6.41778 2.78785 6.23955 3.21285C6.171 3.36365 6.1573 3.58301 6.1573 3.78865V7.59994C6.1573 7.69591 6.07504 7.77817 5.97907 7.77817H3.97746C3.88149 7.77817 3.79923 7.69591 3.79923 7.59994C3.79923 6.62656 3.82665 1.92414 3.79923 0.827361C3.79923 0.731393 3.88149 0.649135 3.97746 0.649135H5.99278C6.08875 0.649135 6.171 0.731393 6.171 0.827361V1.66365C6.171 1.67736 6.1573 1.67736 6.1573 1.69107H6.171V1.66365C6.48633 1.18381 7.04842 0.484619 8.30971 0.484619C9.87262 0.484619 11.0379 1.51284 11.0379 3.69268ZM0.289554 7.79188H2.30488C2.40084 7.79188 2.4831 7.70962 2.4831 7.61365V0.827361C2.4831 0.731393 2.40084 0.649135 2.30488 0.649135H0.289554C0.193586 0.649135 0.111328 0.731393 0.111328 0.827361V7.61365C0.125038 7.70962 0.193586 7.79188 0.289554 7.79188Z" fill="#333033"/>
</svg>
